<svg width="120" height="83" viewBox="0 0 120 83" xmlns="http://www.w3.org/2000/svg">
    <g fill="none" fill-rule="evenodd">
        <path d="M37.784 38.67a1.46 1.46 0 0 0-1.295-.137c-.368.141-.591.415-.788.657l-.077.095a3.29 3.29 0 0 1-.04-.304c-.02-.198-.04-.402-.112-.6-.168-.454-.601-.796-1.158-.915-.598-.125-1.195.024-1.562.393-.218.22-.38.52-.478.895-.293 1.11.039 2.368.913 3.537a3.996 3.996 0 0 1-.559-.205.319.319 0 0 0-.419.152.307.307 0 0 0 .154.41 4.85 4.85 0 0 0 1.998.421c1.075 0 2.153-.337 3-.985.687-.523 1.102-1.173 1.171-1.83.064-.614-.243-1.265-.748-1.585" fill="#E7272B"/>
        <path d="M61.626 41.24a4.79 4.79 0 0 1-4.175-2.327 4.61 4.61 0 0 1 0-4.713 4.79 4.79 0 0 1 4.175-2.327 6.333 6.333 0 0 1 3.707 1.257l.334.264v-3.665l-.098-.059a8.334 8.334 0 0 0-8.228-.088c-2.56 1.421-4.15 4.08-4.165 6.966.022 4.445 3.704 8.034 8.232 8.023a8.675 8.675 0 0 0 4.287-1.196l.096-.055.082-.06v-3.822l-.356.334a6.045 6.045 0 0 1-3.892 1.472m10.19-3.057h5.934v6.002h3.678V28.928H77.75v6.002h-5.93v-6.002h-3.66v15.258h3.66l-.005-6zm-10.19 22.561a4.79 4.79 0 0 1-4.175-2.327 4.61 4.61 0 0 1 0-4.713 4.79 4.79 0 0 1 4.175-2.327 6.333 6.333 0 0 1 3.707 1.257l.334.264v-3.667l-.098-.058a8.334 8.334 0 0 0-8.226-.088c-2.56 1.42-4.15 4.076-4.166 6.963a7.967 7.967 0 0 0 3.41 6.526 8.288 8.288 0 0 0 7.392 1.066l.092-.03 1.775-4.584-.587.465a6.211 6.211 0 0 1-3.632 1.25M75.46 48.432h-3L66.117 63.69h3.914l1.17-3.045h5.429l1.169 3.045h4.023L75.51 48.556l-.05-.124zm-3.103 9.215 1.566-4.058 1.56 4.058h-3.126zm27.046-19.62h5.122V34.98h-5.122v-2.801h5.808v-3.252h-9.465v15.258h3.657v-6.158zm-5.944 2.907h-6.083v-2.995h5.322V34.9h-5.322v-2.722h5.986v-3.252h-9.645v15.258h9.744l-.002-3.251zm21.9 13.535c-1.429-.458-2.297-.805-2.297-1.755 0-.878.724-1.444 1.847-1.444a6.906 6.906 0 0 1 2.91.75l.206.103 1.084-2.964-.158-.08a8.787 8.787 0 0 0-4.091-1.031c-3.23 0-5.398 1.832-5.398 4.559 0 2.673 1.64 3.79 4.287 4.722 1.65.608 2.584.994 2.584 1.865 0 .998-.693 1.619-1.808 1.619a7.645 7.645 0 0 1-3.513-1.16l-.193-.108-1.414 2.937.522.314v-.005a8.855 8.855 0 0 0 4.556 1.285c3.352 0 5.517-1.913 5.517-4.87 0-2.915-2.648-4.1-4.641-4.735m-14.002 2.975h5.323v-3.04h-5.323v-2.722h5.987v-3.252H97.7V63.69h9.744V60.44h-6.086l-.002-2.993zm-6.724-4.025c0-2.982-2.217-4.987-5.517-4.987h-5.338v15.258h3.66v-5.674h.654l3.647 5.672h3.998l-4.027-6.078c1.825-.591 3.022-2.308 2.924-4.192m-5.587 1.677h-1.609v-3.539h1.61c1.254 0 2.065.7 2.065 1.784 0 1.074-.792 1.747-2.066 1.755M8.701 52.758c-.07.308-.16.612-.27.909a18.534 18.534 0 0 0-.66 2.838c-.033.16 0 .327.093.464a.63.63 0 0 0 .525.276c.3 0 .557-.207.616-.495.14-.894.342-1.777.603-2.644.217-.611.39-1.236.52-1.87a.61.61 0 0 0-.138-.55.635.635 0 0 0-.535-.208c-3.072.294-5.856-.796-7.446-2.911-2.384-3.17 1.562-10.374 1.598-10.44.08-.14 8.06-13.834 18.336-11.971a.629.629 0 0 0 .717-.499.619.619 0 0 0-.49-.717c-4.646-.84-9.53 1.086-14.124 5.572-2.137 2.103-3.999 4.46-5.54 7.017-.18.324-4.369 7.971-1.51 11.772 1.837 2.32 4.715 3.612 7.705 3.457m19.655-42.307a8.71 8.71 0 0 0-1.495 2.886.61.61 0 0 0 .134.604.637.637 0 0 0 1.066-.226c.708-2.168 1.666-2.883 1.67-2.885a.614.614 0 0 0-.067-1.054c-.042-.022-4.196-2.205-3.626-4.69.612-2.683 2.835-3.91 5.94-3.28 3.556.72 9.808 5.006 11.638 6.302a.482.482 0 0 0 .05.032c.05.03 4.927 2.857 4.994 5.832a3.21 3.21 0 0 1-1.16 2.811 2.82 2.82 0 0 1-2.374.487 50.72 50.72 0 0 1-3.322-1.08l.456-1.3a.61.61 0 0 0-.112-.617.637.637 0 0 0-1.078.213l-.446 1.27a36.814 36.814 0 0 1-5.898-2.67.637.637 0 0 0-.866.177.611.611 0 0 0 .169.853 37.966 37.966 0 0 0 6.187 2.804l-2.038 5.804a7.838 7.838 0 0 1-5.026-.341l-.033-.012c-.048-.018-4.822-1.798-5.27-6.36a.626.626 0 0 0-.687-.556.621.621 0 0 0-.566.674c.515 5.248 5.665 7.246 6.073 7.397a8.99 8.99 0 0 0 3.497.703c.93.01 1.856-.138 2.735-.437a.623.623 0 0 0 .366-.374l2.13-6.067c1.349.483 2.572.881 3.389 1.106.326.09.663.135 1.002.134a4.144 4.144 0 0 0 2.484-.833 4.49 4.49 0 0 0 1.649-3.816c-.08-3.571-5.123-6.583-5.59-6.856C41.9 5.368 35.918 1.339 32.233.592c-3.808-.772-6.65.845-7.424 4.218-.606 2.646 2.178 4.77 3.55 5.637M24.676 22.97l.039.027c-.326 2.012-.454 3.517.21 5.441a.63.63 0 0 0 .078.153c.09.128 2.253 3.16 5.298 3.25.092 0 .18.004.27.004 2.372 0 4.249-.993 7.527-5.824a.609.609 0 0 0 .05-.624.633.633 0 0 0-1.098-.062c-3.368 4.965-4.967 5.32-6.711 5.27-2.19-.064-3.941-2.241-4.25-2.65-.625-1.871-.39-3.236.024-5.686.07-.42.147-.869.222-1.352a.62.62 0 0 0-.527-.691.629.629 0 0 0-.717.5c-.044.273-.087.538-.13.792a1.658 1.658 0 0 1-.537-1.354c.17-.522.575-.939 1.098-1.13a.61.61 0 0 0 .233-1.045.638.638 0 0 0-.615-.132 3.029 3.029 0 0 0-1.949 2.063c-.144.702-.003 1.804 1.486 3.048m-7.335 24.737a.636.636 0 0 0-.85-.259c-2.526 1.309-4.246 3.742-4.61 6.523a.61.61 0 0 0 .131.455.633.633 0 0 0 .495.234c.319 0 .587-.235.624-.546a7.106 7.106 0 0 1 1.524-3.57c.841.078 1.689.057 2.524-.064a7.856 7.856 0 0 1 2.456-.025c.439.126.858.308 1.247.543.283.206.542.443.772.706.417.502.946.904 1.547 1.174.136.055.278.096.417.14.18.046.353.112.518.197a.43.43 0 0 1 .167.164.38.38 0 0 1-.12.06.624.624 0 0 0-.181.097c-1.035.103-2.128-.707-3.095-1.426a.64.64 0 0 0-.639-.099.614.614 0 0 0-.122 1.082c1.024.761 2.272 1.69 3.67 1.69.167 0 .334-.014.498-.04a.628.628 0 0 0 .317-.151c.41-.13.736-.44.881-.839a1.401 1.401 0 0 0-.727-1.604 3.601 3.601 0 0 0-.79-.317 4.866 4.866 0 0 1-.33-.109 3.17 3.17 0 0 1-1.088-.867 5.815 5.815 0 0 0-.984-.885 6.293 6.293 0 0 0-1.55-.691c-.76-.254-1.841-.147-2.987-.035a27.43 27.43 0 0 1-1.204.099 7.44 7.44 0 0 1 1.232-.804.62.62 0 0 0 .308-.364.607.607 0 0 0-.044-.471m32.132-1.963a11.445 11.445 0 0 1-.753-2.338c-.167-.986-.246-2.013-.324-3.006a46.948 46.948 0 0 0-.21-2.233c-.245-1.98-1.149-3.73-2.929-5.674a30.165 30.165 0 0 0-5.989-5.032.64.64 0 0 0-.558-.075.624.624 0 0 0-.396.393 8.363 8.363 0 0 1-1.704 2.85c-4.045 3.619-8.147 2.733-10.877 1.352-1.647-.834-3.361-1.6-4.638-1.025-.709.36-1.2 1.03-1.325 1.803l-.02.08c-.629 2.615-1.663 12.94-1.707 13.379a.622.622 0 0 0 .566.668c.343.033.65-.21.688-.547.01-.11 1.069-10.68 1.68-13.215l.018-.076c.189-.774.517-.922.625-.97.826-.372 2.589.52 3.536 1 2.525 1.277 7.479 2.776 12.302-1.537a9.126 9.126 0 0 0 1.745-2.61 27.802 27.802 0 0 1 5.111 4.394c1.597 1.743 2.405 3.285 2.617 4.998.09.72.147 1.46.204 2.177.08 1.02.162 2.073.334 3.116.18.89.457 1.758.824 2.59.261.61.48 1.235.656 1.873a6.899 6.899 0 0 1-1.699 6.347c-.447.451-.922.874-1.422 1.268-.36.295-.758.578-1.18.878-1.24.882-2.523 1.795-3.117 3.215-.28.69-.73 1.302-1.31 1.779-.362.198-.74.37-1.128.515a6.98 6.98 0 0 0-1.522.743.612.612 0 0 0 .178 1.056c.21.078.448.04.621-.1a8.761 8.761 0 0 1 1.21-.558c.491-.175.962-.4 1.405-.673a5.719 5.719 0 0 0 1.71-2.292c.46-1.093 1.596-1.903 2.694-2.685.42-.299.856-.608 1.248-.93a16.28 16.28 0 0 0 1.537-1.374 8.13 8.13 0 0 0 2.005-7.488c-.19-.692-.426-1.37-.708-2.032m-28.604 9.59c-.088.263-.445.318-.638.31a4.146 4.146 0 0 1-.55-.077 3.939 3.939 0 0 0-1.029-.093c-.327.036-.648.11-.958.22-.28.13-.595.175-.902.128a5.317 5.317 0 0 1-1.634-1.287c-.15-.152-.298-.3-.445-.44a.638.638 0 0 0-.89.013.61.61 0 0 0 .013.875c.139.131.278.273.42.415a6.275 6.275 0 0 0 2.084 1.577c.204.077.421.116.64.115a3.68 3.68 0 0 0 1.097-.219c.216-.078.44-.133.668-.164.236-.003.471.022.701.075.239.05.48.082.724.097a1.844 1.844 0 0 0 1.893-1.157.61.61 0 0 0-.127-.607.637.637 0 0 0-1.069.219m17.852 5.781c.191 0 .371-.086.49-.232a.61.61 0 0 0 .123-.521 10.659 10.659 0 0 0-1.147-2.961c-.399-.566-.842-1.1-1.325-1.597-.18-.2-.334-.371-.423-.476a.638.638 0 0 0-.88-.075.61.61 0 0 0-.091.862c.094.112.258.295.451.508.417.44.808.903 1.17 1.387.468.821.81 1.705 1.014 2.624a.627.627 0 0 0 .613.483m-26.36-21.85a.634.634 0 0 0-.816.348 9.862 9.862 0 0 0-.792 3.694c.04 1.542 1.257 2.515 2.33 3.376l.334.27c.268.21.659.172.879-.087a.61.61 0 0 0-.073-.864 37.446 37.446 0 0 0-.344-.277c-.947-.759-1.842-1.475-1.868-2.45a8.576 8.576 0 0 1 .706-3.21.615.615 0 0 0-.356-.801m21.761 17.457a1.959 1.959 0 0 0-1.267-.293c.075-.288.19-.564.344-.82a.678.678 0 0 0 .05-.05 4.93 4.93 0 0 1 1.979-1.138 12.983 12.983 0 0 0 1.614-.74c1.126-.575 2.191-1.12 2.714-2.577.157-.437.318-.869.478-1.301.473-1.274.962-2.591 1.337-3.946.081-.246.83-2.57.532-4.287a.621.621 0 0 0-.402-.476.64.64 0 0 0-.62.104.612.612 0 0 0-.22.58c.256 1.468-.484 3.684-.491 3.706a.314.314 0 0 0-.011.034c-.36 1.312-.841 2.606-1.307 3.861-.162.438-.324.875-.482 1.312-.36.998-1.055 1.354-2.11 1.894l-.403.208c-.359.18-.726.34-1.102.482a6.002 6.002 0 0 0-2.434 1.453c-.348.431-.59.937-.704 1.476a.604.604 0 0 0 .08.506l-.158.055c-.21.072-.408.14-.594.19-.484.13-1.416-.23-1.973-.445l-.084-.032a2.15 2.15 0 0 0-1.514.256 1.094 1.094 0 0 0-.625.71c-.15.527-.086 1.09.177 1.572.166.232.422.387.708.426.39.105.764.255 1.117.446.223.11.435.21.623.284a.634.634 0 0 0 .82-.343.615.615 0 0 0-.35-.805 9.345 9.345 0 0 1-.539-.247 6.465 6.465 0 0 0-1.36-.536 1.547 1.547 0 0 1 .014-.413c.165-.087.344-.147.53-.176l.025.01c.792.304 1.875.72 2.76.487.23-.062.46-.14.682-.219.69-.237 1.165-.376 1.48-.172.227.206.393.469.482.76.21.396.326.834.34 1.28-.055.647-.723 1.198-1.43 1.695a9.1 9.1 0 0 1-2.666 1.445c-.25.071-.479.152-.7.23-.763.274-1.118.38-1.533.087a5.079 5.079 0 0 1-.403-.332 6.327 6.327 0 0 0-.483-.396.631.631 0 0 0-.307-.114c.135-.136.266-.28.394-.434a.61.61 0 0 0-.089-.87.638.638 0 0 0-.886.087c-1.504 1.808-3.616 2.225-6.531 2.311a93.394 93.394 0 0 1-14.412-.628 5.073 5.073 0 0 1-1.765-.44 1.36 1.36 0 0 1-.775-1.06c0-.806 1.16-1.316 2.154-1.507 2.129-.41 4.16-.253 6.313-.087.352.027.707.055 1.063.08 2.091.146 4.223.185 6.285.222.651.012 1.302.025 1.952.04a.624.624 0 0 0 .633-.605.623.623 0 0 0-.603-.632c-.652-.014-1.305-.026-1.96-.038-2.045-.037-4.16-.076-6.217-.219-.355-.024-.706-.052-1.058-.078-2.24-.174-4.356-.338-6.654.106-1.532.295-3.17 1.165-3.17 2.72.043.916.59 1.737 1.428 2.144a6.18 6.18 0 0 0 2.21.583c3.792.466 7.61.695 11.432.685 1.05 0 2.108-.016 3.177-.048 2.13-.064 4.493-.273 6.381-1.723a.614.614 0 0 0 .257.504c.127.092.253.202.386.32.161.146.331.284.508.413.359.265.795.408 1.244.408.5-.028.992-.141 1.453-.335.203-.072.411-.146.622-.206a10.293 10.293 0 0 0 3.049-1.628c.953-.67 1.849-1.45 1.949-2.592a3.882 3.882 0 0 0-.435-1.867 2.71 2.71 0 0 0-.946-1.312" fill="#FFF"/>
        <text font-family="Gotham-Black, Gotham" font-size="10" font-weight="800" fill="#FFF" transform="translate(0 .402)">
                        <tspan x="2" y="80.28">EAT WELL • DO GOOD</tspan>
                    </text>
    </g>
</svg>
