<svg width="120" height="118" viewBox="0 0 120 118" xmlns="http://www.w3.org/2000/svg">
    <g fill="none" fill-rule="evenodd">
        <path d="M71.534 37.256a1.432 1.432 0 0 0-1.295-.139c-.368.144-.591.424-.788.672-.025.032-.05.064-.077.096a3.438 3.438 0 0 1-.04-.31c-.02-.202-.04-.411-.112-.613-.168-.465-.601-.815-1.158-.936-.598-.129-1.195.024-1.562.4-.218.225-.38.533-.478.916-.293 1.135.039 2.423.913 3.618a3.94 3.94 0 0 1-.559-.21.316.316 0 1 0-.265.576c.625.289 1.31.43 1.998.43 1.075 0 2.153-.345 3-1.007.687-.536 1.102-1.2 1.171-1.873.064-.627-.243-1.293-.748-1.62" fill="#E7272B"/>
        <path d="M7.971 65.917c1.266 0 2.697.411 3.83 1.099l.093.057v3.568l-.317-.257c-.698-.565-2.041-1.226-3.53-1.226-2.564 0-4.572 2.003-4.572 4.56 0 2.556 2.008 4.56 4.572 4.56 1.325 0 2.815-.576 3.707-1.433l.338-.326v3.72l-.077.06-.092.055c-1.223.74-2.711 1.165-4.084 1.165-4.323 0-7.839-3.504-7.839-7.81 0-4.37 3.501-7.792 7.971-7.792zm56.144 0c1.266 0 2.697.411 3.83 1.099l.093.057v3.568l-.317-.257c-.698-.565-2.042-1.226-3.53-1.226-2.564 0-4.572 2.003-4.572 4.56 0 2.556 2.008 4.56 4.572 4.56 1.188 0 2.545-.478 3.458-1.217l.56-.453-1.691 4.462-.088.03a7.75 7.75 0 0 1-2.447.419c-4.323 0-7.84-3.504-7.84-7.81 0-4.37 3.502-7.792 7.972-7.792zm50.77 0c1.335 0 2.61.329 3.896 1.004l.15.078-1.032 2.886-.196-.1c-.895-.458-1.93-.73-2.77-.73-1.07 0-1.76.551-1.76 1.405 0 .925.827 1.263 2.188 1.709l.174.057c1.874.634 4.244 1.8 4.244 4.551 0 2.88-2.061 4.742-5.253 4.742-1.876 0-3.244-.616-4.338-1.251l-.001.004-.498-.306 1.347-2.86.183.11c.872.514 2.16 1.127 3.345 1.127 1.062 0 1.722-.603 1.722-1.575 0-.847-.89-1.224-2.46-1.816-2.518-.908-4.08-1.995-4.08-4.596 0-2.655 2.065-4.439 5.14-4.439zm-97.133.374v5.844h5.651v-5.844h3.504v14.854h-3.504V75.3h-5.65v5.844h-3.485V66.29h3.484zm31.8 0v3.166h-5.53v2.726h4.88v2.966h-4.88v5.996h-3.485V66.29h9.015zm27.81 0 .05.122 6.008 14.732H79.59l-1.114-2.965h-5.167l-1.114 2.965h-3.727l6.039-14.854h2.857zm13.009 0c3.142 0 5.253 1.951 5.253 4.856 0 1.974-.986 3.414-2.783 4.08l3.834 5.918H92.87l-3.473-5.522h-.624v5.522h-3.484V66.29zm17.357 0v3.166h-5.7v2.65h5.067v2.957h-5.068v2.915h5.795v3.166h-9.28V66.29h9.186zm-69.46 0v3.166h-5.701v2.65h5.068v2.957h-5.068v2.915h5.795v3.166h-9.28V66.29h9.185zm37.633 5.02-1.493 3.95h2.977l-1.484-3.95zm14.404-1.977h-1.533v3.445h1.533c1.212-.009 1.967-.663 1.967-1.708 0-1.055-.772-1.737-1.967-1.737zM75.092 39.58a.6.6 0 0 1 .693.492c.284 1.67-.43 3.934-.508 4.173-.356 1.319-.821 2.601-1.27 3.841-.154.42-.307.842-.456 1.267-.5 1.418-1.512 1.948-2.585 2.509l-.375.198c-.379.203-.777.365-1.162.522-.742.301-1.441.586-1.88 1.107a.627.627 0 0 1-.045.05c-.029.04-.16.246-.328.8.403-.033.815.028 1.206.286.511.339.738.882.904 1.279.211.504.473 1.132.413 1.818-.098 1.112-.95 1.87-1.858 2.523-.87.628-1.812 1.267-2.903 1.585-.2.058-.4.13-.592.2-.432.157-.897.326-1.384.326-.382 0-.778-.103-1.185-.396a5.683 5.683 0 0 1-.483-.404 4.979 4.979 0 0 0-.369-.311.6.6 0 0 1-.243-.49c-1.799 1.41-4.048 1.615-6.077 1.677-1.017.03-2.026.046-3.026.047-3.79 0-7.44-.224-10.886-.668-.739-.095-1.456-.21-2.105-.567-.84-.462-1.36-1.262-1.36-2.088 0-1.513 1.56-2.359 3.02-2.646 2.187-.432 4.202-.272 6.336-.104.332.026.667.053 1.004.077 1.96.14 3.973.178 5.92.214.623.012 1.245.023 1.866.038a.6.6 0 0 1-.028 1.203c-.619-.015-1.239-.026-1.86-.038-1.963-.036-3.993-.074-5.984-.217-.34-.024-.677-.05-1.013-.077-2.049-.162-3.984-.315-6.01.084-.947.187-2.052.682-2.052 1.467 0 .432.37.83.738 1.032.465.256 1.037.346 1.68.429 4.292.553 8.909.759 13.724.61 2.777-.084 4.786-.49 6.22-2.25a.598.598 0 0 1 .843-.084c.257.21.295.59.085.847-.122.15-.247.29-.375.422.102.011.203.046.292.111.17.125.317.258.46.386.132.12.257.231.384.323.395.285.732.18 1.46-.084.21-.077.427-.155.665-.225.91-.265 1.72-.816 2.539-1.406.675-.487 1.307-1.023 1.363-1.652.034-.389-.157-.845-.325-1.247-.138-.33-.267-.613-.459-.74-.3-.198-.753-.062-1.41.168a9.32 9.32 0 0 1-.65.212c-.841.227-1.873-.178-2.627-.474l-.024-.01c-.126.01-.373.096-.504.171a1.546 1.546 0 0 0-.014.402c.415.09.88.318 1.296.522.193.095.375.184.514.24a.602.602 0 0 1-.448 1.117c-.18-.072-.38-.171-.593-.276-.36-.176-.807-.396-1.064-.434a.995.995 0 0 1-.675-.415c-.304-.433-.26-1.07-.168-1.53.053-.27.254-.503.595-.69.299-.165.985-.43 1.441-.25l.08.032c.532.208 1.418.559 1.88.432.177-.048.365-.114.565-.184l.15-.052a.602.602 0 0 1-.075-.493c.208-.724.433-1.206.67-1.436.628-.726 1.487-1.076 2.318-1.414.373-.153.725-.296 1.049-.469l.384-.203c1.005-.525 1.667-.872 2.01-1.843.15-.428.304-.853.458-1.277.443-1.222.902-2.485 1.245-3.76a.447.447 0 0 1 .01-.033c.007-.021.712-2.178.468-3.607a.601.601 0 0 1 .49-.695zM72.75 26.266a.599.599 0 0 1 .53.073c2.168 1.49 3.796 2.768 5.704 4.899 1.695 1.892 2.556 3.596 2.79 5.524.09.727.145 1.462.2 2.173.073.966.15 1.965.308 2.926.127.77.413 1.502.717 2.276.248.632.505 1.286.674 1.977.624 2.55-.107 5.343-1.909 7.29-.459.495-.97.923-1.463 1.337-.374.315-.788.615-1.189.906-1.046.761-2.127 1.548-2.565 2.614-.37.9-.978 1.734-1.629 2.232-.248.189-.67.373-1.338.654-.401.169-1.008.424-1.152.542a.598.598 0 0 1-.844-.083.603.603 0 0 1 .083-.846c.26-.215.722-.417 1.45-.723.393-.166.931-.392 1.075-.502.481-.368.959-1.032 1.246-1.732.568-1.383 1.79-2.27 2.97-3.13.402-.292.781-.568 1.124-.855.465-.39.947-.794 1.354-1.234 1.53-1.653 2.152-4.021 1.622-6.183-.15-.612-.38-1.2-.625-1.823-.313-.799-.636-1.624-.784-2.52-.167-1.013-.245-2.04-.32-3.03-.055-.699-.11-1.42-.195-2.12-.203-1.668-.971-3.169-2.492-4.866-1.643-1.833-3.075-3.013-4.867-4.277-.533 1.204-1.303 2.215-1.668 2.548-4.592 4.198-9.31 2.739-11.714 1.496-.902-.467-2.581-1.337-3.367-.974-.103.047-.416.191-.596.944l-.017.075c-.26 1.101-.604 3.762-.907 6.38l-.072.627a424.574 424.574 0 0 0-.62 5.857.6.6 0 1 1-1.194-.118c.041-.426 1.026-10.478 1.626-13.024l.018-.077c.21-.878.634-1.47 1.262-1.758 1.215-.56 2.848.187 4.416.998 2.599 1.344 6.505 2.207 10.358-1.316.29-.265 1.199-1.48 1.622-2.774a.602.602 0 0 1 .378-.383zm-3.004 27.12a.598.598 0 0 1 .844.081c.084.102.23.268.402.462.603.682 1.078 1.23 1.262 1.555.492.872.86 1.842 1.092 2.883a.602.602 0 0 1-.585.733.6.6 0 0 1-.584-.47 9.322 9.322 0 0 0-.966-2.552c-.136-.241-.75-.936-1.116-1.35a22.7 22.7 0 0 1-.43-.495.603.603 0 0 1 .08-.847zM43.55 29.308c4.375-4.367 9.026-6.242 13.45-5.424a.602.602 0 0 1-.218 1.184c-9.785-1.813-17.384 11.518-17.46 11.654l-.005.01c-.159.297-3.746 7.12-1.517 10.15 1.514 2.06 4.166 3.12 7.09 2.834a.603.603 0 0 1 .641.739c-.325 1.372-.419 1.62-.494 1.82-.07.184-.12.317-.574 2.573a.6.6 0 1 1-1.176-.238c.408-2.028.503-2.41.588-2.651l.02-.056.02-.055c.043-.113.102-.268.258-.885-3.017.068-5.718-1.164-7.338-3.366-2.721-3.7 1.267-11.143 1.439-11.459.084-.15 2.023-3.582 5.276-6.83zm5.501 22.97a.598.598 0 0 1 .848-.013c.14.136.28.28.424.428.499.513 1.015 1.044 1.556 1.253.213.082.512-.014.86-.125.272-.088.582-.187.91-.212.355-.028.687.035.98.09.187.035.363.068.524.075.182.008.524-.046.608-.302a.6.6 0 1 1 1.139.378c-.27.822-1.095 1.158-1.8 1.127a4.928 4.928 0 0 1-.691-.095c-.242-.046-.47-.088-.668-.073-.19.015-.407.084-.638.158-.307.099-.664.213-1.044.213a1.68 1.68 0 0 1-.61-.11c-.787-.304-1.423-.96-1.985-1.537-.135-.139-.268-.276-.4-.404a.603.603 0 0 1-.013-.851zm2.54-6.482a.598.598 0 0 1 .81.252.603.603 0 0 1-.251.813c-.419.221-.81.486-1.174.783.37-.02.77-.06 1.148-.097 1.09-.109 2.12-.213 2.843.034.517.176 1.02.36 1.476.673.373.254.66.563.937.861.343.369.639.687 1.036.844.103.041.21.074.315.107.234.073.499.157.752.309.59.355.875.996.692 1.56-.12.371-.424.665-.839.817a.596.596 0 0 1-.301.146c-.16.027-.319.04-.475.04-1.331 0-2.52-.904-3.495-1.645a.603.603 0 0 1-.116-.842.598.598 0 0 1 .84-.117c.921.7 1.962 1.488 2.948 1.388a.584.584 0 0 1 .173-.093.362.362 0 0 0 .114-.06.416.416 0 0 0-.157-.162 2.396 2.396 0 0 0-.494-.192 5.778 5.778 0 0 1-.397-.136c-.65-.257-1.087-.728-1.473-1.143-.243-.261-.473-.508-.735-.687-.333-.228-.734-.374-1.187-.528-.477-.163-1.466-.065-2.338.024-.892.088-1.74.172-2.404.062a7.005 7.005 0 0 0-1.447 3.477.6.6 0 0 1-.595.533l-.07-.004a.601.601 0 0 1-.526-.667c.306-2.647 1.988-5.08 4.39-6.35zm-4.708-7.625a.6.6 0 1 1 1.116.44c-.455 1.164-.694 2.273-.672 3.124.025.95.877 1.647 1.779 2.385l.327.27a.603.603 0 0 1-.383 1.064.597.597 0 0 1-.384-.139 43.206 43.206 0 0 0-.318-.262c-1.022-.837-2.18-1.785-2.22-3.287-.033-1.292.392-2.668.755-3.595zm12.945-21.178a.602.602 0 0 1 .364 1.146c-.298.096-.931.53-1.046 1.1-.091.456.168.922.513 1.319.04-.248.082-.503.123-.772a.6.6 0 1 1 1.185.186c-.074.47-.146.907-.214 1.317-.396 2.383-.617 3.711-.022 5.532.293.396 1.962 2.518 4.047 2.58 1.661.05 3.182-.296 6.39-5.13a.598.598 0 0 1 .832-.167c.276.185.35.558.167.835-3.122 4.703-4.91 5.669-7.168 5.67-.085 0-.17-.002-.257-.005-2.9-.087-4.959-3.038-5.045-3.164a.595.595 0 0 1-.074-.148c-.632-1.874-.51-3.338-.2-5.297-.013-.009-.026-.016-.038-.026-1.417-1.214-1.552-2.284-1.414-2.968.22-1.1 1.256-1.816 1.857-2.008zM59.51 4.29c.737-3.284 3.444-4.858 7.07-4.106 3.508.727 9.207 4.65 11.52 6.321.447.266 5.246 3.198 5.324 6.674.035 1.581-.523 2.9-1.57 3.714-.68.529-1.53.812-2.366.812a3.51 3.51 0 0 1-.953-.13c-.777-.22-1.943-.607-3.228-1.078l-2.028 5.906a.6.6 0 0 1-.348.365c-.069.027-1.102.422-2.605.422-.96 0-2.113-.162-3.33-.685-.387-.146-5.292-2.09-5.782-7.199a.6.6 0 1 1 1.194-.115c.426 4.441 4.972 6.174 5.018 6.19l.03.013c2.151.93 4.109.525 4.788.332l1.94-5.65c-2.278-.875-4.686-1.924-5.892-2.73a.603.603 0 0 1-.167-.834.599.599 0 0 1 .831-.168c1.094.732 3.382 1.74 5.617 2.6l.424-1.238a.599.599 0 1 1 1.134.393l-.435 1.267c1.205.44 2.33.815 3.164 1.05.736.209 1.622.022 2.26-.474.522-.407 1.138-1.211 1.105-2.736-.064-2.895-4.708-5.649-4.755-5.676a.583.583 0 0 1-.049-.032c-1.744-1.262-7.697-5.434-11.083-6.136-2.957-.612-5.071.581-5.658 3.192-.542 2.42 3.414 4.545 3.454 4.566a.603.603 0 0 1 .064 1.026c-.002.002-.914.698-1.589 2.808a.598.598 0 0 1-.754.389.602.602 0 0 1-.388-.757c.451-1.41 1.005-2.292 1.423-2.809-1.306-.844-3.957-2.911-3.38-5.487zM1.176 86.578h7.412v2.01H3.413v2.05h4.628v1.935H3.413v4.143H1.176V86.578zm10.371 5.064a5.25 5.25 0 0 1 1.528-3.707 5.227 5.227 0 0 1 2.305-1.348 5.14 5.14 0 0 1 1.39-.186 5.212 5.212 0 0 1 4.51 2.594 5.25 5.25 0 0 1 .712 2.647 5.25 5.25 0 0 1-1.528 3.707 5.227 5.227 0 0 1-2.306 1.347 5.147 5.147 0 0 1-1.388.187 5.212 5.212 0 0 1-4.51-2.594 5.192 5.192 0 0 1-.712-2.647zm2.238 0c0 .43.075.83.226 1.199a2.9 2.9 0 0 0 1.571 1.61c.363.156.76.234 1.188.234.428 0 .824-.078 1.188-.234a2.9 2.9 0 0 0 1.57-1.61c.152-.37.227-.77.227-1.2 0-.43-.075-.829-.226-1.198a2.9 2.9 0 0 0-1.571-1.61 2.978 2.978 0 0 0-1.188-.235c-.429 0-.825.078-1.188.235a2.9 2.9 0 0 0-1.571 1.61c-.15.37-.226.769-.226 1.199zm16.475 5.222c-.375 0-.743-.04-1.107-.117a4.796 4.796 0 0 1-1.038-.35 4.288 4.288 0 0 1-.909-.575 3.764 3.764 0 0 1-.724-.798 3.764 3.764 0 0 1-.478-1.013 4.156 4.156 0 0 1-.171-1.223v-6.21h2.237v6.182c0 .344.062.647.186.91a2.004 2.004 0 0 0 1.19 1.068c.263.092.533.138.81.138.269 0 .536-.043.8-.129a2.09 2.09 0 0 0 .704-.39c.206-.173.373-.39.5-.649.126-.26.19-.561.19-.905v-6.225h2.237v6.153c0 .452-.056.868-.169 1.247a3.709 3.709 0 0 1-1.19 1.835c-.277.232-.58.426-.909.582a4.701 4.701 0 0 1-1.043.352 5.347 5.347 0 0 1-1.116.117zm8.83-10.286h2.004l4.827 6.507v-6.507h2.228v10.138h-1.904l-4.928-6.646v6.646H39.09V86.578zm13.46 0h4.105c.825 0 1.572.144 2.24.434a4.75 4.75 0 0 1 1.697 1.223c.377.43.671.926.88 1.489.21.562.315 1.185.315 1.87 0 .745-.128 1.433-.383 2.064a4.811 4.811 0 0 1-1.831 2.236 4.686 4.686 0 0 1-.862.444 5.435 5.435 0 0 1-.978.28 5.779 5.779 0 0 1-1.078.098H52.55V86.578zm2.238 2.01v6.116h1.838a3.09 3.09 0 0 0 1.214-.23c.362-.152.669-.366.921-.642.253-.275.447-.602.583-.982.137-.379.205-.794.205-1.246 0-.472-.075-.894-.226-1.267a2.77 2.77 0 0 0-.621-.948 2.679 2.679 0 0 0-.929-.595 3.164 3.164 0 0 0-1.147-.205h-1.838zm15.866-2.087 4.48 10.215h-2.428l-.943-2.212h-4.17l-.943 2.212h-2.428l4.48-10.215h1.952zm-2.233 6.068h2.524l-1.267-2.962-1.257 2.962zm11.672-3.98h-3v-2.016h8.256v2.016H82.33v8.127h-2.237v-8.127zm8.824-2.011h2.238v10.138h-2.238V86.578zm6.188 5.064a5.25 5.25 0 0 1 1.528-3.707 5.227 5.227 0 0 1 2.304-1.348 5.14 5.14 0 0 1 1.39-.186 5.212 5.212 0 0 1 4.51 2.594 5.25 5.25 0 0 1 .713 2.647 5.25 5.25 0 0 1-1.528 3.707 5.227 5.227 0 0 1-2.307 1.347 5.147 5.147 0 0 1-1.388.187 5.212 5.212 0 0 1-4.51-2.594 5.192 5.192 0 0 1-.712-2.647zm2.237 0c0 .43.076.83.226 1.199a2.9 2.9 0 0 0 1.571 1.61c.364.156.76.234 1.188.234.429 0 .825-.078 1.188-.234a2.9 2.9 0 0 0 1.571-1.61c.15-.37.226-.77.226-1.2 0-.43-.075-.829-.226-1.198a2.9 2.9 0 0 0-1.571-1.61 2.978 2.978 0 0 0-1.188-.235c-.428 0-.824.078-1.188.235a2.9 2.9 0 0 0-1.57 1.61c-.151.37-.227.769-.227 1.199zm12.048-5.064h2.004l4.827 6.507v-6.507h2.228v10.138h-1.904l-4.927-6.646v6.646h-2.228V86.578z" fill="#FFF"/>
        <g fill="#FFF" fill-rule="nonzero">
            <path d="M18.04 114.325a3.32 3.32 0 0 1-2.477-1.065 4.37 4.37 0 0 1-.527-.696v1.653h-1.19v-8.702h1.19v4.786c0 .236.04.473.12.712.079.239.187.467.323.686a3.605 3.605 0 0 0 1.084 1.103c.215.138.437.247.666.327.23.08.46.12.69.12.28 0 .544-.043.792-.13.248-.087.465-.22.65-.4.186-.178.333-.404.441-.677.108-.273.162-.594.162-.963v-5.564h1.195v5.585c0 .351-.038.675-.116.97a3.167 3.167 0 0 1-.327.8 2.821 2.821 0 0 1-1.14 1.089 3.135 3.135 0 0 1-.736.274c-.26.06-.527.092-.8.092zM16.708 115.43c.07-.044.155-.083.253-.117a3.088 3.088 0 0 1 .585-.141 1.87 1.87 0 0 1 .23-.018c.193 0 .343.029.451.087a.58.58 0 0 1 .24.228.789.789 0 0 1 .094.322c.01.121.015.245.015.371v.174c0 .144.019.267.056.371a.757.757 0 0 0 .152.262c.064.07.139.12.223.153a.756.756 0 0 0 .524.003.587.587 0 0 0 .22-.146.757.757 0 0 0 .157-.259c.041-.106.061-.235.061-.389v-1.146h1.19v1.07c0 .262-.037.501-.111.716a1.38 1.38 0 0 1-.347.55c-.157.152-.355.27-.595.354-.24.083-.527.125-.861.125-.334 0-.618-.038-.85-.113a1.455 1.455 0 0 1-.568-.32 1.196 1.196 0 0 1-.314-.496 1.762 1.762 0 0 1-.081-.637c.007-.137-.008-.234-.043-.292-.036-.058-.102-.087-.2-.087a.959.959 0 0 0-.334.077l-.147-.702zM26.31 113.255a2.969 2.969 0 0 0 .499-.051c.09-.017.177-.037.263-.06.086-.021.167-.048.24-.079l.4.922a2.662 2.662 0 0 1-.369.146 3.609 3.609 0 0 1-.42.105 5.419 5.419 0 0 1-.438.064 4.163 4.163 0 0 1-.433.023c-.365 0-.717-.058-1.056-.172a2.66 2.66 0 0 1-.904-.514 2.53 2.53 0 0 1-.633-.853 2.759 2.759 0 0 1-.238-1.18c0-.307.044-.592.131-.854.088-.263.21-.5.368-.712.157-.211.345-.4.564-.563.22-.164.461-.3.724-.41.264-.109.544-.191.841-.248.297-.056.603-.084.917-.084.236 0 .48.011.73.033.249.022.491.051.726.087a9.068 9.068 0 0 1 1.208.269v-.507c0-.423-.068-.772-.203-1.047a1.662 1.662 0 0 0-.56-.655 2.271 2.271 0 0 0-.84-.34 5.306 5.306 0 0 0-3.127.34c-.21.09-.399.19-.568.3l-.466-.978c.216-.13.457-.246.722-.348a6.75 6.75 0 0 1 .826-.259c.285-.07.573-.123.863-.161.29-.038.569-.056.836-.056.53 0 1.022.059 1.476.176.454.118.846.305 1.175.56.33.257.588.587.775.991.187.405.281.895.281 1.472v5.605h-1.19v-4.161a5.046 5.046 0 0 0-.461-.139 6.748 6.748 0 0 0-.615-.125 11.57 11.57 0 0 0-.707-.09 7.609 7.609 0 0 0-.734-.036c-.351 0-.679.045-.983.134a2.54 2.54 0 0 0-.792.378c-.225.164-.401.363-.53.597a1.606 1.606 0 0 0-.192.785c0 .284.05.532.152.745a1.5 1.5 0 0 0 .41.53c.172.14.373.245.603.315.23.07.472.105.73.105zM36.434 114.325c-.412 0-.805-.07-1.18-.208a2.907 2.907 0 0 1-.995-.614 2.942 2.942 0 0 1-.689-1.008c-.17-.401-.256-.866-.256-1.395v-5.585h1.196v5.564c0 .376.054.7.162.973.108.273.255.499.44.678.186.18.403.312.651.397.248.085.512.128.793.128.226 0 .455-.04.686-.12.231-.08.454-.19.668-.33.215-.14.415-.305.6-.495.186-.189.348-.393.484-.611.137-.219.245-.447.324-.684.08-.237.12-.475.12-.714v-4.786h1.19v8.702h-1.19v-1.653a4.37 4.37 0 0 1-.527.696 3.32 3.32 0 0 1-2.477 1.065zM33.4 103.206h7.228v.988H33.4zM44.613 112a.9.9 0 0 0 .142.484c.095.152.228.285.4.4.173.114.378.204.616.271.238.067.499.1.782.1.27 0 .52-.033.75-.1.23-.067.428-.16.595-.282.167-.12.297-.267.39-.44.093-.172.139-.364.139-.576 0-.208-.039-.401-.116-.58-.078-.18-.2-.346-.368-.5a2.672 2.672 0 0 0-.638-.42 5.345 5.345 0 0 0-.93-.337c-.26-.072-.522-.147-.787-.226a9.895 9.895 0 0 1-.767-.26 5.862 5.862 0 0 1-.689-.318 2.602 2.602 0 0 1-.557-.402 1.742 1.742 0 0 1-.375-.517 1.509 1.509 0 0 1-.136-.652c0-.243.044-.467.134-.674.09-.206.212-.392.367-.558.155-.165.34-.31.552-.435a3.73 3.73 0 0 1 .689-.312c.246-.084.504-.147.772-.19a5.14 5.14 0 0 1 .808-.063c.294 0 .59.03.886.09.297.059.582.138.854.237.271.1.526.214.762.343.236.13.442.266.618.41l-.628.896a3.376 3.376 0 0 0-.562-.4 4.043 4.043 0 0 0-.618-.284 3.959 3.959 0 0 0-1.312-.228c-.25 0-.499.018-.747.052a2.744 2.744 0 0 0-.671.174c-.2.082-.361.19-.486.325a.707.707 0 0 0-.188.499c0 .143.04.273.117.389.077.116.183.222.316.317.134.096.289.182.466.259.178.076.366.147.565.212.2.065.404.126.615.184.211.058.416.116.616.174.472.137.878.29 1.215.461.338.17.616.365.833.584.218.218.378.464.479.737.101.273.152.58.152.921 0 .263-.042.509-.124.737a2.323 2.323 0 0 1-.342.627c-.145.19-.317.359-.517.507-.199.149-.415.274-.648.376-.233.103-.478.18-.734.233-.257.053-.517.08-.78.08-.399 0-.784-.055-1.158-.164a3.42 3.42 0 0 1-.992-.463c-.289-.2-.52-.442-.694-.727a1.806 1.806 0 0 1-.26-.96v-1.853h1.194V112zM43.357 103.206h5.708v.988h-5.708zM51.76 114.217v-8.702h1.19v8.702zM59.929 108.202c.324.09.614.223.87.402.257.18.474.393.652.64.177.248.313.525.407.832.095.307.142.635.142.983 0 .45-.084.873-.253 1.27a3.258 3.258 0 0 1-1.717 1.735 3.11 3.11 0 0 1-1.256.256 3.11 3.11 0 0 1-1.256-.256 3.258 3.258 0 0 1-1.97-3.005 3.12 3.12 0 0 1 .352-1.474c.103-.198.22-.375.35-.53.13-.155.258-.29.387-.402.223-.198.407-.407.554-.627.147-.22.22-.458.22-.714 0-.287-.073-.5-.22-.637-.147-.139-.343-.208-.59-.208-.22.007-.414.057-.585.149-.17.092-.315.201-.433.327l-.511-.855c.104-.105.225-.197.362-.273a2.607 2.607 0 0 1 .838-.297c.138-.023.265-.034.38-.034.246.004.483.041.709.113.226.072.425.182.598.33.172.149.31.337.412.566.103.228.155.501.155.819 0 .249-.032.47-.096.663a2.43 2.43 0 0 1-.246.527c-.1.159-.211.305-.334.44-.124.135-.244.269-.362.402-.115.13-.22.257-.312.381a2.48 2.48 0 0 0-.24.395 2.066 2.066 0 0 0-.218.944c0 .287.049.559.147.816a1.997 1.997 0 0 0 1.061 1.136c.251.115.532.172.843.172a1.99 1.99 0 0 0 1.904-1.308c.098-.257.147-.53.147-.816 0-.26-.04-.507-.122-.742a2.033 2.033 0 0 0-.891-1.108 2.18 2.18 0 0 0-.709-.27 7.432 7.432 0 0 0-.301-.05 1.621 1.621 0 0 0-.226-.02v-.733l2.345-2.626h1.474l-2.461 2.687zM66.143 114.217h-1.028l-1.474-8.702h1.2l1.033 6.501 2.29-6.5h.77l2.289 6.5 1.119-10.212h1.16l-1.52 12.413h-1.028l-2.405-6.849zM75.4 114.217v-8.702h1.191v8.702h-1.19zm2.969 0v-8.702h1.19v8.702h-1.19zM85.97 105.413c.321 0 .635.035.943.105.307.07.597.172.87.307.274.135.525.303.753.504a3.28 3.28 0 0 1 .982 1.569c.093.322.14.673.14 1.052v5.267h-1.19v-5.247c0-.358-.05-.688-.15-.99a2.11 2.11 0 0 0-.458-.786 2.103 2.103 0 0 0-.78-.52c-.314-.124-.686-.186-1.114-.186-.402 0-.76.062-1.074.187a2.227 2.227 0 0 0-.793.52 2.223 2.223 0 0 0-.488.785 2.841 2.841 0 0 0-.168.99v.2h2.467v1.034h-2.467v4.013h-1.19v-5.267c0-.379.048-.73.142-1.052a3.265 3.265 0 0 1 .995-1.569c.232-.201.485-.37.76-.504.275-.135.567-.237.876-.307.31-.07.624-.105.945-.105zM94.702 114.325c-.253 0-.518-.022-.795-.064a4.488 4.488 0 0 1-.84-.218 4.977 4.977 0 0 1-.85-.404 4.484 4.484 0 0 1-.812-.625l.668-.84c.217.202.437.372.661.51a3.813 3.813 0 0 0 1.35.515c.223.037.439.056.648.056.237 0 .462-.03.676-.09.215-.06.403-.147.565-.263.162-.116.291-.258.388-.425.096-.167.144-.357.144-.568 0-.209-.032-.387-.096-.535a1.04 1.04 0 0 0-.324-.402 2.498 2.498 0 0 0-.61-.333 13.584 13.584 0 0 0-.95-.333 8.676 8.676 0 0 1-1.039-.396 4.055 4.055 0 0 1-.873-.535 2.43 2.43 0 0 1-.6-.71 1.863 1.863 0 0 1-.223-.918c0-.365.078-.693.233-.983.155-.29.365-.535.63-.734.265-.2.573-.353.922-.459.35-.105.72-.158 1.112-.158.246 0 .503.023.77.069a5.084 5.084 0 0 1 1.532.527c.238.128.45.272.635.433l-.628.895a4.922 4.922 0 0 0-1.134-.61c-.2-.074-.4-.133-.6-.175a2.952 2.952 0 0 0-1.264.01c-.206.05-.382.123-.527.22a1.02 1.02 0 0 0-.334.358 1 1 0 0 0-.116.49c0 .187.04.358.124.514.082.155.208.3.377.432.169.133.382.257.64.371.259.115.565.223.92.325.422.123.797.261 1.127.415.329.154.607.331.833.532.226.202.398.433.516.694.119.261.178.562.178.903a2.231 2.231 0 0 1-.438 1.35c-.137.185-.3.35-.49.496-.188.145-.395.266-.62.363a3.594 3.594 0 0 1-.714.223 3.863 3.863 0 0 1-.772.077zM97.817 102.766h-1.803c-.17 0-.286.041-.35.123a.526.526 0 0 0-.096.333c0 .051.02.128.058.23.04.103.087.2.145.292l-.942.358a1.74 1.74 0 0 1-.233-.348 2.126 2.126 0 0 1-.132-.325 1.696 1.696 0 0 1-.076-.453c0-.235.046-.425.137-.568a.976.976 0 0 1 .344-.333c.139-.078.29-.131.453-.158.164-.028.319-.041.464-.041h2.03v.89zM102.299 113.255a2.969 2.969 0 0 0 .499-.051c.09-.017.177-.037.263-.06.086-.021.166-.048.24-.079l.4.922a2.662 2.662 0 0 1-.369.146 3.609 3.609 0 0 1-.42.105 5.419 5.419 0 0 1-.438.064 4.163 4.163 0 0 1-.433.023c-.365 0-.717-.058-1.056-.172a2.66 2.66 0 0 1-.904-.514 2.53 2.53 0 0 1-.634-.853 2.759 2.759 0 0 1-.238-1.18c0-.307.044-.592.132-.854.088-.263.21-.5.367-.712.157-.211.346-.4.565-.563.22-.164.46-.3.724-.41.264-.109.544-.191.841-.248.297-.056.603-.084.917-.084.236 0 .48.011.729.033.25.022.492.051.727.087a9.068 9.068 0 0 1 1.208.269v-.507c0-.423-.068-.772-.203-1.047a1.662 1.662 0 0 0-.56-.655 2.271 2.271 0 0 0-.84-.34 5.306 5.306 0 0 0-3.128.34c-.209.09-.398.19-.567.3l-.466-.978c.216-.13.457-.246.722-.348a6.75 6.75 0 0 1 .825-.259c.286-.07.573-.123.864-.161a6.523 6.523 0 0 1 1.917.03c.34.059.652.153.94.282l.886-1.09h1.499l-1.429 1.76c.233.257.413.562.54.917.126.355.19.77.19 1.244v5.605h-1.19v-4.161a5.046 5.046 0 0 0-.461-.139 6.748 6.748 0 0 0-.616-.125 11.57 11.57 0 0 0-.706-.09 7.609 7.609 0 0 0-.734-.036c-.352 0-.68.045-.983.134a2.54 2.54 0 0 0-.793.378c-.224.164-.4.363-.529.597a1.606 1.606 0 0 0-.192.785c0 .284.05.532.152.745a1.5 1.5 0 0 0 .41.53c.172.14.373.245.603.315.23.07.472.105.729.105z"/>
        </g>
    </g>
</svg>
