<svg width="163" height="151" viewBox="0 0 163 151" xmlns="http://www.w3.org/2000/svg">
    <g fill="none" fill-rule="evenodd">
        <path d="M1.22 75.5c0 41.697 33.748 75.5 75.377 75.5 41.63 0 75.377-33.803 75.377-75.5S118.227 0 76.597 0C34.967 0 1.22 33.803 1.22 75.5z" fill="#F7FAFD" fill-rule="nonzero"/>
        <path d="M68.232 103.058a5.38 5.38 0 0 0 4.512-2.522 42.905 42.905 0 0 0 5.25-27.528 5.385 5.385 0 0 0-6.151-4.394 5.391 5.391 0 0 0-4.481 6.093A31.837 31.837 0 0 1 63.63 94.79a5.4 5.4 0 0 0-.148 5.501 5.383 5.383 0 0 0 4.75 2.767z" stroke="#56789C" stroke-width="1.884" fill="#FFF" fill-rule="nonzero" stroke-linecap="round" stroke-linejoin="round"/>
        <path d="M79.004 103.966a5.384 5.384 0 0 0 4.522-2.52 42.905 42.905 0 0 0 5.25-27.53 5.385 5.385 0 0 0-6.15-4.394 5.391 5.391 0 0 0-4.482 6.093 31.835 31.835 0 0 1-3.73 20.083 5.4 5.4 0 0 0-.15 5.496 5.383 5.383 0 0 0 4.74 2.772z" stroke="#56789C" stroke-width="1.884" fill="#FFF" fill-rule="nonzero" stroke-linecap="round" stroke-linejoin="round"/>
        <path d="M89.115 105.05a5.384 5.384 0 0 0 4.512-2.52 42.905 42.905 0 0 0 5.248-27.526 5.39 5.39 0 0 0-3.392-4.186 5.375 5.375 0 0 0-5.315.85 5.396 5.396 0 0 0-1.923 5.034 31.847 31.847 0 0 1-3.731 20.083 5.4 5.4 0 0 0-.146 5.5 5.383 5.383 0 0 0 4.747 2.766h0z" stroke="#56789C" stroke-width="1.884" fill="#FFF" fill-rule="nonzero" stroke-linecap="round" stroke-linejoin="round"/>
        <path d="M41.504 114.949c5.713-14.436 12.882-11.484 21.154-15.957 13.351-8.116 18.564-11.395 35.936-22.786 1.903-1.822 2.235-2.443 3.405-1.542a5.366 5.366 0 0 0 7.036-.927 5.388 5.388 0 0 0-.02-7.108l-4.146-4.719c-6.825-7.739-16.667-11.425-26.958-12.027C49.058 48.2 22.776 84.58 13.71 104.19l27.793 10.759z" fill="#FFF" fill-rule="nonzero"/>
        <path d="M93.934 66.351 76.497 73.57c-.243.098-.493.168-.736.26a34.46 34.46 0 0 1-11.73 2.286l-.619.01c-1.568.015-1.244-.944-1.057-2.216 6.379-15.019 20.327-15.855 31.579-7.558z" fill="#FFF" fill-rule="nonzero"/>
        <path d="M41.504 114.949c5.713-14.436 12.882-11.484 21.154-15.957 13.351-8.116 18.564-11.395 35.936-22.786 1.903-1.822 2.235-2.443 3.405-1.542a5.366 5.366 0 0 0 7.036-.927 5.388 5.388 0 0 0-.02-7.108l-4.146-4.719c-6.825-7.739-16.667-11.425-26.958-12.027C49.058 48.2 22.776 84.58 13.71 104.19l27.793 10.759zm52.43-48.598L76.497 73.57c-.243.098-.493.168-.736.26a34.46 34.46 0 0 1-11.73 2.286l-.619.01c-1.568.015-1.244-.944-1.057-2.216h0c6.379-15.019 20.327-15.855 31.579-7.558z" stroke="#56789C" stroke-width="1.884" stroke-linecap="round" stroke-linejoin="round"/>
        <path d="m1 116.493 6.064-12.037a2.69 2.69 0 0 1 3.616-1.193l32.446 16.404a2.7 2.7 0 0 1 1.191 3.623l-6.064 12.036L1 116.493z" fill="#81A6CF" fill-rule="nonzero"/>
        <path d="m1 116.493 6.064-12.037a2.69 2.69 0 0 1 3.616-1.193l32.446 16.404a2.7 2.7 0 0 1 1.191 3.623l-6.064 12.036" stroke="#56789C" stroke-width="1.884" stroke-linecap="round" stroke-linejoin="round"/>
        <path d="m43.126 119.668 2.425-4.816a2.7 2.7 0 0 0-1.19-3.622L16.72 97.263a2.69 2.69 0 0 0-3.615 1.193l-2.426 4.815 32.446 16.397z" stroke="#56789C" stroke-width="1.884" fill="#FFF" fill-rule="nonzero" stroke-linecap="round" stroke-linejoin="round"/>
        <path d="m69.035 54.61 61.857-26.74a9.084 9.084 0 0 1 6.964-.106 9.105 9.105 0 0 1 4.998 4.86l14.54 33.748c1.992 4.621-.134 9.984-4.747 11.978l-61.862 26.742c-4.613 1.994-9.966-.135-11.956-4.755l-14.542-33.75c-1.991-4.621.135-9.984 4.748-11.978z" fill="#81A6CF" fill-rule="nonzero"/>
        <path stroke="#56789C" stroke-width="1.884" stroke-linecap="round" stroke-linejoin="round" d="m87.691 92.338 14.823-6.408"/>
        <path stroke="#56789C" stroke-width="1.884" fill="#FFF" fill-rule="nonzero" stroke-linecap="round" stroke-linejoin="round" d="m78.736 71.552 14.822-6.408 4.478 10.393-14.822 6.408z"/>
        <path d="m69.035 54.61 61.857-26.74a9.084 9.084 0 0 1 6.964-.106 9.105 9.105 0 0 1 4.998 4.86l14.54 33.748c1.992 4.621-.134 9.984-4.747 11.978l-61.862 26.742c-4.613 1.994-9.966-.135-11.956-4.755l-14.542-33.75c-1.991-4.621.135-9.984 4.748-11.978z" stroke="#56789C" stroke-width="1.884" stroke-linecap="round" stroke-linejoin="round"/>
        <path d="M117.591 69.943a9.705 9.705 0 0 0 4.843 8.402 9.672 9.672 0 0 0 9.686 0 9.705 9.705 0 0 0 4.843-8.402 9.705 9.705 0 0 0-4.843-8.402 9.672 9.672 0 0 0-9.686 0 9.705 9.705 0 0 0-4.843 8.402z" fill="#FFF" fill-rule="nonzero"/>
        <path d="M127.967 65.457a9.705 9.705 0 0 0 4.843 8.402 9.672 9.672 0 0 0 9.685 0 9.705 9.705 0 0 0 4.843-8.402 9.705 9.705 0 0 0-4.843-8.402 9.672 9.672 0 0 0-9.685 0 9.705 9.705 0 0 0-4.843 8.402z" fill="#FFF" fill-rule="nonzero"/>
        <path d="M128.752 69.301a9.68 9.68 0 0 0 6.83 5.633 9.712 9.712 0 0 0 .589-8.836 9.686 9.686 0 0 0-6.823-5.632 9.702 9.702 0 0 0-.596 8.835z" fill="#81A6CF" fill-rule="nonzero"/>
        <path d="M117.591 69.943a9.705 9.705 0 0 0 4.843 8.402 9.672 9.672 0 0 0 9.686 0 9.705 9.705 0 0 0 4.843-8.402 9.705 9.705 0 0 0-4.843-8.402 9.672 9.672 0 0 0-9.686 0 9.705 9.705 0 0 0-4.843 8.402z" stroke="#56789C" stroke-width="1.884" stroke-linecap="round" stroke-linejoin="round"/>
        <path d="M127.967 65.457a9.705 9.705 0 0 0 4.843 8.402 9.672 9.672 0 0 0 9.685 0 9.705 9.705 0 0 0 4.843-8.402 9.705 9.705 0 0 0-4.843-8.402 9.672 9.672 0 0 0-9.685 0 9.705 9.705 0 0 0-4.843 8.402h0z" stroke="#56789C" stroke-width="1.884" stroke-linecap="round" stroke-linejoin="round"/>
        <path d="M63.242 98.639c13.067-7.94 18.302-11.25 35.827-22.743a6.216 6.216 0 0 0 3.356-5.045 5.393 5.393 0 0 0-2.398-4.44 5.374 5.374 0 0 0-5.015-.505l-1.078.445-17.437 7.218c-.243.098-.493.168-.736.26a34.46 34.46 0 0 1-11.73 2.286l-.619.01c-1.568.015-1.244-.944-1.057-2.216" stroke="#56789C" stroke-width="1.884" fill="#FFF" fill-rule="nonzero"/>
        <path d="M63.242 98.639c13.067-7.94 18.302-11.25 35.827-22.743a6.216 6.216 0 0 0 3.356-5.045 5.393 5.393 0 0 0-2.398-4.44 5.374 5.374 0 0 0-5.015-.505l-1.078.445-17.437 7.218c-.243.098-.493.168-.736.26a34.46 34.46 0 0 1-11.73 2.286l-.619.01c-1.568.015-1.244-.944-1.057-2.216" stroke="#56789C" stroke-width="1.884" fill="#FFF" fill-rule="nonzero" stroke-linecap="round" stroke-linejoin="round"/>
    </g>
</svg>
