<svg width="156" height="161" viewBox="0 0 156 161" xmlns="http://www.w3.org/2000/svg">
    <g fill="none" fill-rule="evenodd">
        <path d="M0 82.985C0 126.07 34.922 161 78 161s78-34.929 78-78.015C156 39.898 121.078 4.97 78 4.97S0 39.898 0 82.985z" fill="#F7FAFD" fill-rule="nonzero"/>
        <path d="M126.243 44.586a7.13 7.13 0 0 1 5.343-5.344l10.725-2.475a.891.891 0 0 0 0-1.738l-10.725-2.473a7.134 7.134 0 0 1-5.345-5.344l-2.475-10.727a.891.891 0 0 0-1.735 0l-2.475 10.727a7.128 7.128 0 0 1-5.343 5.344l-10.725 2.473a.891.891 0 0 0 0 1.738l10.725 2.475a7.128 7.128 0 0 1 5.343 5.344l2.475 10.727a.891.891 0 0 0 1.735 0l2.477-10.727zM33.17 55.732a4.753 4.753 0 0 1 3.564-3.565l7.157-1.652a.597.597 0 0 0 0-1.16l-7.157-1.65a4.753 4.753 0 0 1-3.565-3.566l-1.651-7.154a.585.585 0 0 0-1.158 0l-1.65 7.154a4.758 4.758 0 0 1-3.567 3.565l-7.15 1.65a.595.595 0 0 0 0 1.16l7.15 1.651a4.757 4.757 0 0 1 3.565 3.567l1.652 7.156a.585.585 0 0 0 1.158 0l1.651-7.156zM83.951 21.086a4.977 4.977 0 0 1 3.727-3.73l7.482-1.726a.622.622 0 0 0 0-1.21l-7.482-1.727a4.98 4.98 0 0 1-3.729-3.729l-1.725-7.478a.62.62 0 0 0-1.211 0l-1.726 7.478a4.975 4.975 0 0 1-3.728 3.73l-7.477 1.725a.622.622 0 0 0 0 1.211l7.477 1.727a4.973 4.973 0 0 1 3.728 3.729l1.726 7.483a.622.622 0 0 0 1.21 0l1.728-7.483zM36.92 136.146l8.698-1.535a1.95 1.95 0 0 0 1.584-2.258l-7.752-43.96a1.95 1.95 0 0 0-2.258-1.583l-8.7 1.534 8.427 47.802z" stroke="#56789C" stroke-width="1.951" fill="#FFF" fill-rule="nonzero" stroke-linecap="round" stroke-linejoin="round"/>
        <path d="M78.887 73.98c-1.008-13.458-4.26-42.146-15.3-40.2a8.086 8.086 0 0 0-6.56 9.372l.469 2.655c3.432 19.474-1.424 41.324-17.759 44.205l7.162 40.724 2.09-.367c10.21-1.802 16.291 4.428 34.576 1.204l30.976-5.461a7.19 7.19 0 0 0-2.496-14.164l3.54-.624a7.19 7.19 0 0 0-2.497-14.164l3.54-.624a7.19 7.19 0 0 0-2.496-14.164l3.539-.624a7.19 7.19 0 0 0-2.496-14.163L78.887 73.98z" stroke="#56789C" stroke-width="1.951" fill="#FFF" fill-rule="nonzero" stroke-linecap="round" stroke-linejoin="round"/>
        <path stroke="#56789C" stroke-width="1.951" stroke-linecap="round" stroke-linejoin="round" d="m71.807 75.228 7.08-1.248M112.045 111.944l-3.541.624M113.088 97.156l-3.541.624M114.132 82.369l-3.542.624"/>
        <path d="m4.485 88.928 21.45-3.786a1.95 1.95 0 0 1 2.26 1.582l8.997 51.043a1.95 1.95 0 0 1-1.581 2.259l-21.45 3.783-9.676-54.881z" fill="#81A6CF" fill-rule="nonzero"/>
        <path d="m4.485 88.928 21.45-3.786a1.95 1.95 0 0 1 2.26 1.582l8.997 51.043a1.95 1.95 0 0 1-1.581 2.259l-21.45 3.783" stroke="#56789C" stroke-width="1.951" stroke-linecap="round" stroke-linejoin="round"/>
    </g>
</svg>
