<svg width="69" height="18" viewBox="0 0 69 18" xmlns="http://www.w3.org/2000/svg">
    <path d="M13.081 2.982c.08.119.095.238.123.407l.025.138.098.644c0 .04-.031.111-.018.189l.018.06v1.666l-.001.466-.005.444c-.006.447-.018.917-.043 1.587 0 .148-.049.297-.147.446.196-.199 1.23-1.735 1.23-1.933.473-.674.977-1.349 1.462-1.972l.36-.457.836-1.041c.037-.037.046-.046.07-.049h.029l.197-.199c.039 0 .078-.063.143-.114l.054-.034.098-.15a.525.525 0 0 0 .173-.062l.073-.036-.05-.05c.05 0 .05 0 .1-.05.036 0 .045 0 .048-.02v-.029h.099v-.05l.098.05c.048-.19 1.23.442 2.543 1.633l.165.151.098.199c.127 0 .145.145.178.28l.02.067.196.297c0 .05 0 .446.148.545 0 .309 0 .186.069.434l.03.111.098.694c.098.694.147 1.09.147 1.884.169.382.193.655.259.944l.037.146.295.892c-.05.05 0 .199.098.248-.049.149.05.198.099.198.079 0 .094.032.123.07l.024.03h.099c.148 0 .246-.05.246-.1 0 0 .05 0 .246-.05 0 0 0-.027.02-.04l.03-.009.049-.05.492-.396.984-.941c.246-.347.443-.794.837-1.24.394-.396.64-.793.935-1.338.345-.297.296-.644.443-.743l-.008.005c.246-.876.59-1.743.894-2.533.493-.942.837-1.537 1.33-2.38.253-.424.687-.813.991-1.133l.14-.155 1.182-.446c.492 0 .099-.1.492-.05.148.05.197 0 .197 0 .013 0 .031.003.053.008L32.57.1l.052.008c.886.198 3.348 1.834 3.643 2.478.05.149.05.248.148.298.049.247 0 .05.098.247 0 .248.05.15.148.397-.05.099 0 .446 0 .496 0 .099-.05.198-.05.297 0 .124-.068.385-.062.555l.013.09-.246.941c0 .1-.098.1-.197.545 0 .085-.144.352-.248.49l-.047.055-.148.595c-.172.13-.231.147-.276.315l-.02.082-.787.991a3.685 3.685 0 0 1-1.526.942c-.393.149-.738.198-1.132.099-.295-.1-.984-.347-.984.198a.223.223 0 0 1-.04.084l-.035.043c-.059.074-.115.182-.046.672l.022.143.05.991c.088.179.256.799.325.993l.02.048.344.744c.098.148.393.446.59.495.05.05.148.1.345.1.148.049.344.099.443.099.098 0 .246.05.64 0 2.56-.248 4.233-3.222 4.676-3.916.16-.242.566-1.138.967-1.925.02-.199.042-.4.067-.603.098-2.131.246-4.362.787-6.344.197-.793.345-1.388.837-1.388.443 0 2.461 1.437 2.806 1.834.443.347.492.495.394 1.784-.148.892-.246 1.933-.443 3.123 0 .347-.05.694-.099.991-.047 1.147.638.128.907-.435l.029-.06.689-1.29.984-1.982c.246-.198.492-.793.64-.991 0-.093.087-.186.544-.85l.096-.142h.05l.048-.099h.05l.049-.05.394-.247c.701-.33 1.847.459 2.424 1.261l.086.127.148.396.147.496c.119.396.268.825.349 1.26l.045.326.345 1.537c.197.892.443 1.635.738 2.676.246.991.739 1.437 1.182.843.31-.347 1.123-1.443 1.72-2.275l.002-.104c.148-1.686.247-2.627.493-3.916.197-.694.147-1.487.344-1.983.148-.446.197-.793.345-1.09.344-.298.443-.347.837 0 .246 0 1.92 1.437 2.067 1.883.044.088.049.412-.02.83l-.03.162v.293c-.002.267-.011.5-.048 1.094-.046 1.007-.133 1.633-.224 2.893l-.023.33-.098 2.329c-.043.694-.01 1.16.064 1.664l.034.22.099.743c.148.248.148.248.394.297.172.044.382.011.465-.097l.027-.052.394-.644c.295-.496.443-.644.59-1.09.368-.74 1.036-2.646 1.483-3.623l.093-.194 1.329-3.816c.272-.87.293-1.021.605-1.858l.084-.224.147-.397c.08-.079.095-.158.123-.187l.025-.01V1.89l.05-.148.098-.15h.098l-.049-.148h.05v-.149l.098-.099s.049-.05.098 0c0-.037.028-.102.042-.132l.007-.016v-.05c.08-.08.126-.127.167-.143l.03-.006.197-.198.246-.099.296-.05c.098 0 1.87 1.041 1.969 1.041.098.05.197.1.246.248 0 .041.102.117.193.141l.053.008-.014.055c-.01.048-.016.113.014.143.05 0 .05.1 0 .149 0 0 .05.05.148.05-.04.079-.048.094-.024.123l.024.025h.049l-.05.05v.198l.05.099v.05l.049.05c-.05.197-.098.247 0 .297 0 .123-.034.247-.046.285l-.003.012v.297c-.038.302-.247 2.1-.344 3.093l-.03.33a4.44 4.44 0 0 0-.02.295c-.098.594-.197 1.635-.197 2.825 0 .793-.098.991-.05 1.636 0 .178.009.563.021.982l.014.425c.018.494.041.959.064 1.12 0 .397.296 2.776.296 3.123.049.1-.394.297-.936.347-.246 0-2.165-.743-2.412-.991-.344-.199-.738-.892-.787-1.14-.197-.496-.296-.942-.394-1.487-.148-1.24-.098-3.073-.098-3.123-.05-.248-.296-.248-.394-.099-.542.793-1.772 5.006-2.51 5.6-.05.1-.887.249-1.182.348-1.23-.149-2.707-1.19-3.741-2.181 0-.05-.148-.297-.197-.347-.082-.248-.232-.565-.309-.807l-.036-.135-.27-1.273c-.835 1.304-1.6 2.017-2.535 2.017-.788 0-2.462-.744-3.101-2.23-.443-1.042-.69-1.636-.985-2.578-.268-.721-.334-.991-.454-1.444l-.038-.142-.246-.892-.246-.744c.049-.05-.148-.198-.148-.248 0 0-.063-.031-.088-.019l-.01.02h-.05l-.049.049-.295.446-.542.892c-.246.446-.147.446-.394.942-.218.396-.204.362-.302.628l-.042.115-.59 1.388c-.296.942-.788 2.578-1.084 3.37-.118.358-.205.714-.31 1.02l-.084.22-.196.644c.049.05 0 .1-.05.149a.534.534 0 0 1-.062.174l-.036.074.05.099c-.038 0-.047 0-.07.02l-.03.03v.148l-.147.149v.05l.05.049-.05.05s-.055 0-.083.02l-.015.029v.149l-.099.099h-.05c-.078 0-.062.032-.053.07l.005.029-.05.1h-.098c-.11.036-.166.101-.228.152l-.067.045h-.148s-.837-.347-.886-.347c-.148 0-.837-.545-.935-.545-.05 0-.345-.149-.493-.198-.049 0-.246-.248-.295-.297-.05 0-.098-.1-.197-.15.05-.049-.05-.098-.05-.098-.04 0-.115-.172-.196-.23l-.05-.018-.048-.149c0-.082 0-.096-.057-.099h-.042v-.05s-.031 0-.044-.05l-.005-.049v-.05c-.04-.039-.079-.047-.068-.074l.019-.024v-.1c0-.037 0-.046-.021-.048l-.029-.001.05-.198h-.099v-.149c0-.08-.031-.19-.019-.257l.02-.04v-.496a.784.784 0 0 1-.055-.225c-.713.976-1.568 1.911-2.505 2.654-1.33 1.04-2.659 1.14-3.003 1.19-.197.098-.492.049-.69.049-.098.05-1.082-.198-1.328-.198-.246-.1-.739-.199-.985-.397-.197-.05-.837-.545-1.033-.644-.443-.347-.591-.347-1.133-1.041-.541-.892-.787-1.388-.886-1.785-.098-.099-.049-.198-.098-.297 0-.1.05-.198 0-.198 0-.1-.05-.1-.05-.149-.049 0-.049-.149-.049-.149 0-.05-.049-.099 0-.148-.049-.149-.098-.149-.049-.248-.049 0-.049-.1-.098-.149-.025-.155-.05-.295-.076-.426l-.074-.37a12.885 12.885 0 0 1-.034-.176c-.178.212-.386.445-.505.625-.05.248-.296.496-.443.694-.247.198-.05.1-.296.297a.454.454 0 0 0-.141.264l-.006.083-.148.15-.64.445h-.098a.164.164 0 0 0-.049.09v.109l-.148.099c-.05 0-.148.05-.099.099-.049 0-.098-.05-.246-.05-.05 0 0 .05-.05.1-.039 0-.046.031-.124.044l-.072.005v.099c-.05.05-.098.05-.098.1-.175.087-.623.175-.755.16l-.033-.012h-.246s-.099.05-.05 0c-.078 0-.094.032-.097.019v-.02h-.1c-.196.05-.344 0-.393-.049-.345-.148-1.428-.446-1.526-.644-.246-.149-1.378-.843-1.428-1.19-.129 0-.258-.38-.321-.474l-.023-.021-.148-.397-.197-.892c-.098-.446-.098-.545-.295-.843 0-.05.05-.099.05-.099-.05-.05 0-.099 0-.148-.038 0-.047 0-.05-.021v-.029l.05-.1-.1-.049c0-.04 0-.142-.024-.182l-.024-.016-.148-.743c-.099-.199-.246-.645-.246-.893 0 0 0-.031-.025-.095l-.024-.053v-.149c-.04 0-.048 0-.1-.025l-.048-.025.098-.05-.197-.049h-.098c-.056 0-.482.486-.938 1.022l-.342.405-.59.705c-.355.594-.678 1.094-.97 1.65l-.212.431-.886 1.785c-.345.743-.64 2.379-1.428 2.528-.295.05-2.165-.992-2.362-1.041-.099-.149-.443-.298-.542-.595-.043-.088-.126-.568-.11-.813l.012-.08V12.4c.049-.297.049-.595.098-1.437.148-1.487.345-1.487.394-2.875 0-1.19.21-1.703.242-2.438l.004-.19.099-.891-.05-.05-.344-.297-.246.099c-.099.05-.05.05-.05.1-.04 0-.15.171-.185.229l-.011.018v.05c-.05 0-.197.099-.099.148 0 .05-.05.1-.098.198 0 .04-.032.08-.02.17l.02.078v.05l-.148.149-.05.297c-.073.149-.147.297-.2.467l-.045.177-.788 2.032c-.344 1.14-.935 2.578-1.329 3.966-.098.198-.197.743-.64 1.784 0 .04 0 .048-.05.075l-.048.024v.05l-.542 1.834c-.049 0-.246.495-.246.495.05.1-.05.149-.197.149.037.037.046.046.049.07v.03l-.049.049c0 .099-.147.148-.246.198-.05 0-.05.05-.05.05-.048.148-.098.148-.147.148 0 .05-.098.05-.246.05-.05.05-.098.05-.148.05-.197.049-1.033-.645-1.181-.645-.197 0-.935-.496-1.034-.545-.049 0-.147-.149-.147-.149 0-.05-.05-.05-.05-.1-.246-.049-.246-.148-.344-.197-.05-.05-.05-.05-.05-.1-.078 0-.094-.031-.097-.044v-.005l-.1-.149h.05c-.05 0-.099-.05-.099-.148-.036 0-.046-.028-.048-.063v-.037l-.05-.05c.04-.039.047-.047-.002-.074l-.047-.024.049-.05a.437.437 0 0 1-.049-.143v-.005H.135v-.05l-.049-.05.05-.198v-.05l-.1-.049c.1-.198.05-.297 0-.496.05-.05.1-.148 0-.247-.048-.199 0-.397 0-.595-.048-.347-.048-.694 0-.942.176-1.057.273-1.606.396-2.55l.048-.374.59-4.114c.148-1.14.444-3.619.64-4.114.148-.446.444-.298.788-.298.197-.099 1.821.942 2.117 1.24.098.099.738.446.837.743.147.347-.936 5.006-.837 5.551.147.199.295.05.295-.05.138-.462.705-1.96.86-2.48l.026-.097.345-.694c.098-.099.049-.297.098-.347.133-.089.386-.78.542-1.062l.049-.078.197-.446c.04-.198.142-.333.18-.506l.017-.138.836-1.437c.493-.645.197-.496.788-.793.098-.15.148-.199.295-.199.886-.396 2.855 1.339 3.938 2.925zm20.724-.298v.05h-.148s0 .05-.098 0c-.197.149-.443.297-.591.595-.295.247-.443.793-.69 1.14a.898.898 0 0 0-.188.414l-.008.081-.246.595c-.197.347-.394 1.586-.493 1.933-.098.05-.049.248-.049.248 0 .03-.003.06-.008.09l-.016.094c-.034.202-.037.387.566.312.787-.1 1.526-1.537 1.772-1.983.295-.397.64-1.487.738-1.735.043-.087.162-.515.19-.72l.007-.073v-.248c.05-.099.05-.347 0-.347 0-.037 0-.046-.02-.07l-.03-.029-.098-.099s.05-.05 0-.05c-.098.05-.147-.049-.147-.099-.148-.099-.197-.099-.246-.05-.099-.049-.148-.049-.197-.049z" fill="#212529" fill-rule="nonzero"/>
</svg>
